<?xml version="1.0" encoding="UTF-8" standalone="no"?>
<svg viewBox="0 0 16 16" version="1.1" xmlns="http://www.w3.org/2000/svg" xmlns:xlink="http://www.w3.org/1999/xlink" xmlns:sketch="http://www.bohemiancoding.com/sketch/ns">
    <!-- Generator: Sketch 3.5.2 (25235) - http://www.bohemiancoding.com/sketch -->
    <title>jetpack-icon--20px</title>
    <desc>Created with Sketch.</desc>
    <defs></defs>
    <g id="Page-1" stroke="none" stroke-width="1" fill="none" fill-rule="evenodd" sketch:type="MSPage">
        <g id="jetpack-icon--20px" sketch:type="MSLayerGroup" fill="#C8D7E1">
            <path d="M8,0 C3.582,0 0,3.582 0,8 C0,12.418 3.582,16 8,16 C12.418,16 16,12.418 16,8 C16,3.582 12.418,0 8,0 L8,0 Z M7,10 L4.487,9.36 C3.85,9.198 3.543,8.472 3.872,7.902 L7,3 L7,10 L7,10 Z M12.128,8.098 L9,13 L9,6 L11.513,6.64 C12.15,6.802 12.456,7.528 12.128,8.098 L12.128,8.098 Z" id="Shape" sketch:type="MSShapeGroup"></path>
        </g>
    </g>
</svg>
